<?xml version="1.0" encoding="utf-8"?>
<!-- Generator: Adobe Illustrator 19.1.0, SVG Export Plug-In . SVG Version: 6.00 Build 0)  -->
<svg version="1.1" id="livetype" xmlns="http://www.w3.org/2000/svg" xmlns:xlink="http://www.w3.org/1999/xlink" x="0px" y="0px"
	 viewBox="10 31 119.7 40" style="enable-background:new 10 31 119.7 40;" xml:space="preserve">
<style type="text/css">
	.st0{fill:#FFFFFF;}
</style>
<title>Download_on_the_App_Store_Badge_US-UK_RGB_wht_092917</title>
<g>
	<g>
		<g>
			<path d="M120.1,31H19.5c-0.4,0-0.7,0-1.1,0c-0.3,0-0.6,0-0.9,0c-0.7,0-1.3,0.1-2,0.2c-0.7,0.1-1.3,0.3-1.9,0.6
				C13,32.1,12.5,32.5,12,33c-0.5,0.5-0.9,1-1.2,1.6c-0.3,0.6-0.5,1.2-0.6,1.9c-0.1,0.7-0.2,1.3-0.2,2c0,0.3,0,0.6,0,0.9v23.1
				c0,0.3,0,0.6,0,0.9c0,0.7,0.1,1.3,0.2,2c0.1,0.7,0.3,1.3,0.6,1.9c0.3,0.6,0.7,1.1,1.2,1.6c0.5,0.5,1,0.9,1.6,1.2
				c0.6,0.3,1.2,0.5,1.9,0.6c0.7,0.1,1.3,0.2,2,0.2c0.3,0,0.6,0,0.9,0c0.4,0,0.7,0,1.1,0h100.6c0.4,0,0.7,0,1.1,0c0.3,0,0.6,0,0.9,0
				c0.7,0,1.3-0.1,2-0.2c0.7-0.1,1.3-0.3,1.9-0.6c0.6-0.3,1.1-0.7,1.6-1.2c0.5-0.5,0.9-1,1.2-1.6c0.3-0.6,0.5-1.2,0.6-1.9
				c0.1-0.7,0.2-1.3,0.2-2c0-0.3,0-0.6,0-0.9c0-0.4,0-0.7,0-1.1V40.5c0-0.4,0-0.7,0-1.1c0-0.3,0-0.6,0-0.9c0-0.7-0.1-1.3-0.2-2
				c-0.1-0.7-0.3-1.3-0.6-1.9c-0.6-1.2-1.6-2.2-2.8-2.8c-0.6-0.3-1.2-0.5-1.9-0.6c-0.7-0.1-1.3-0.2-2-0.2c-0.3,0-0.6,0-0.9,0
				C120.9,31,120.5,31,120.1,31L120.1,31z"/>
			<path class="st0" d="M18.4,70.1c-0.3,0-0.6,0-0.9,0c-0.6,0-1.3-0.1-1.9-0.2c-0.6-0.1-1.1-0.3-1.7-0.5c-0.5-0.3-1-0.6-1.4-1
				c-0.4-0.4-0.8-0.9-1-1.4c-0.3-0.5-0.4-1.1-0.5-1.7c-0.1-0.6-0.2-1.2-0.2-1.9c0-0.2,0-0.9,0-0.9V39.4c0,0,0-0.7,0-0.9
				c0-0.6,0.1-1.3,0.2-1.9c0.1-0.6,0.3-1.1,0.5-1.7c0.3-0.5,0.6-1,1-1.4c0.4-0.4,0.9-0.8,1.4-1c0.5-0.3,1.1-0.4,1.7-0.5
				c0.6-0.1,1.2-0.2,1.9-0.2l0.9,0h102.8l0.9,0c0.6,0,1.2,0.1,1.9,0.2c0.6,0.1,1.1,0.3,1.7,0.5c1,0.5,1.9,1.4,2.4,2.4
				c0.3,0.5,0.4,1.1,0.5,1.6c0.1,0.6,0.2,1.3,0.2,1.9c0,0.3,0,0.6,0,0.9c0,0.4,0,0.7,0,1.1v20.9c0,0.4,0,0.7,0,1.1
				c0,0.3,0,0.6,0,0.9c0,0.6-0.1,1.2-0.2,1.9c-0.1,0.6-0.3,1.1-0.5,1.7c-0.3,0.5-0.6,1-1,1.4c-0.4,0.4-0.9,0.8-1.4,1
				c-0.5,0.3-1.1,0.5-1.7,0.5c-0.6,0.1-1.2,0.2-1.9,0.2c-0.3,0-0.6,0-0.9,0l-1.1,0L18.4,70.1z"/>
		</g>
		<g id="_Group_">
			<g id="_Group_2">
				<g id="_Group_3">
					<path id="_Path_" d="M35,50.9c0-1.8,0.9-3.4,2.5-4.3c-1-1.4-2.5-2.2-4.2-2.2c-1.7-0.2-3.4,1-4.3,1c-0.9,0-2.3-1-3.8-1
						c-1.9,0.1-3.7,1.1-4.7,2.8c-2,3.5-0.5,8.6,1.4,11.4c1,1.4,2.1,2.9,3.6,2.9c1.4-0.1,2-0.9,3.7-0.9c1.7,0,2.2,0.9,3.7,0.9
						c1.5,0,2.5-1.4,3.5-2.8c0.7-1,1.2-2.1,1.6-3.2C36.2,54.7,35,52.9,35,50.9z"/>
					<path id="_Path_2" d="M32.2,42.5c0.8-1,1.3-2.3,1.2-3.6C32,39,30.8,39.6,30,40.6c-0.8,1-1.3,2.2-1.2,3.5
						C30.1,44.1,31.3,43.5,32.2,42.5z"/>
				</g>
			</g>
			<g>
				<path d="M52.3,58.1h-4.7l-1.1,3.4h-2l4.5-12.4H51l4.5,12.4h-2L52.3,58.1z M48.1,56.6h3.8L50,51.1h-0.1L48.1,56.6z"/>
				<path d="M65.2,57c0,2.8-1.5,4.6-3.8,4.6c-1.2,0.1-2.3-0.6-2.8-1.6h0v4.5h-1.9v-12h1.8v1.5h0c0.6-1,1.7-1.6,2.9-1.6
					C63.6,52.3,65.2,54.2,65.2,57z M63.2,57c0-1.8-0.9-3-2.4-3c-1.4,0-2.4,1.2-2.4,3c0,1.8,1,3,2.4,3C62.3,60,63.2,58.8,63.2,57
					L63.2,57z"/>
				<path d="M75.1,57c0,2.8-1.5,4.6-3.8,4.6c-1.2,0.1-2.3-0.6-2.8-1.6h0v4.5h-1.9v-12h1.8v1.5h0c0.6-1,1.7-1.6,2.9-1.6
					C73.6,52.3,75.1,54.2,75.1,57z M73.2,57c0-1.8-0.9-3-2.4-3c-1.4,0-2.4,1.2-2.4,3c0,1.8,1,3,2.4,3C72.3,60,73.2,58.8,73.2,57z"/>
				<path d="M81.7,58c0.1,1.2,1.3,2,3,2c1.6,0,2.7-0.8,2.7-1.9c0-1-0.7-1.5-2.3-1.9l-1.6-0.4c-2.3-0.6-3.3-1.6-3.3-3.3
					c0-2.1,1.9-3.6,4.5-3.6c2.6,0,4.4,1.5,4.5,3.6h-1.9c-0.1-1.2-1.1-2-2.6-2s-2.5,0.8-2.5,1.9c0,0.9,0.7,1.4,2.3,1.8l1.4,0.3
					c2.5,0.6,3.6,1.6,3.6,3.4c0,2.3-1.8,3.8-4.8,3.8c-2.8,0-4.6-1.4-4.7-3.7L81.7,58z"/>
				<path d="M93.3,50.3v2.1h1.7v1.5h-1.7v5c0,0.8,0.3,1.1,1.1,1.1c0.2,0,0.4,0,0.6,0v1.5c-0.3,0.1-0.7,0.1-1,0.1
					c-1.8,0-2.5-0.7-2.5-2.4v-5.2h-1.3v-1.5h1.3v-2.1H93.3z"/>
				<path d="M96.1,57c0-2.8,1.7-4.6,4.3-4.6c2.6,0,4.3,1.8,4.3,4.6c0,2.9-1.7,4.6-4.3,4.6C97.7,61.6,96.1,59.8,96.1,57z M102.8,57
					c0-2-0.9-3.1-2.4-3.1S98,55,98,57c0,2,0.9,3.1,2.4,3.1S102.8,58.9,102.8,57L102.8,57z"/>
				<path d="M106.2,52.4h1.8V54h0c0.2-1,1.2-1.7,2.2-1.6c0.2,0,0.4,0,0.6,0.1v1.7c-0.3-0.1-0.6-0.1-0.8-0.1c-1,0-1.9,0.8-1.9,1.8
					c0,0.1,0,0.2,0,0.3v5.4h-1.9L106.2,52.4z"/>
				<path d="M119.4,58.8c-0.2,1.6-1.9,2.8-3.9,2.8c-2.6,0-4.3-1.8-4.3-4.6c0-2.8,1.6-4.7,4.2-4.7c2.5,0,4.1,1.7,4.1,4.5v0.6h-6.4
					v0.1c-0.1,1.3,0.8,2.4,2.1,2.6c0.1,0,0.2,0,0.3,0c0.9,0.1,1.8-0.4,2.1-1.3L119.4,58.8z M113.1,56.1h4.5c0.1-1.2-0.9-2.2-2.1-2.3
					c-0.1,0-0.1,0-0.2,0C114.1,53.8,113.1,54.8,113.1,56.1C113.1,56.1,113.1,56.1,113.1,56.1z"/>
			</g>
		</g>
	</g>
	<g id="_Group_4">
		<g>
			<path d="M47.8,39.7c1.5-0.1,2.7,1,2.8,2.4c0,0.2,0,0.3,0,0.5c0,1.9-1,3-2.8,3h-2.2v-6H47.8z M46.6,44.9h1.1c1,0.1,1.9-0.7,2-1.8
				c0-0.1,0-0.3,0-0.4c0.1-1-0.6-2-1.6-2.1c-0.1,0-0.2,0-0.4,0h-1.1V44.9z"/>
			<path d="M51.7,43.4c-0.1-1.2,0.7-2.2,1.9-2.3c1.2-0.1,2.2,0.7,2.3,1.9c0,0.1,0,0.3,0,0.4c0.1,1.2-0.7,2.2-1.9,2.3
				c-1.2,0.1-2.2-0.7-2.3-1.9C51.7,43.7,51.7,43.6,51.7,43.4z M55,43.4c0-1-0.4-1.5-1.2-1.5c-0.8,0-1.2,0.6-1.2,1.5
				c0,1,0.4,1.6,1.2,1.6C54.6,45,55,44.4,55,43.4L55,43.4z"/>
			<path d="M61.6,45.7h-0.9l-0.9-3.3h-0.1l-0.9,3.3h-0.9l-1.2-4.5h0.9l0.8,3.4h0.1l0.9-3.4h0.9l0.9,3.4h0.1l0.8-3.4h0.9L61.6,45.7z"
				/>
			<path d="M63.9,41.2h0.9v0.7h0.1c0.2-0.5,0.8-0.8,1.3-0.8c0.8-0.1,1.5,0.5,1.6,1.4c0,0.1,0,0.2,0,0.3v2.9h-0.9V43
				c0-0.7-0.3-1.1-1-1.1c-0.6,0-1.1,0.4-1.1,1c0,0.1,0,0.1,0,0.2v2.6h-0.9L63.9,41.2z"/>
			<path d="M69.1,39.4H70v6.3h-0.9V39.4z"/>
			<path d="M71.2,43.4c-0.1-1.2,0.7-2.2,1.9-2.3c1.2-0.1,2.2,0.7,2.3,1.9c0,0.1,0,0.3,0,0.4c0.1,1.2-0.7,2.2-1.9,2.3
				c-1.2,0.1-2.2-0.7-2.3-1.9C71.2,43.7,71.2,43.6,71.2,43.4z M74.6,43.4c0-1-0.4-1.5-1.2-1.5c-0.8,0-1.2,0.6-1.2,1.5
				c0,1,0.4,1.6,1.2,1.6C74.1,45,74.6,44.4,74.6,43.4z"/>
			<path d="M76.4,44.4c0-0.8,0.6-1.3,1.7-1.3l1.2-0.1v-0.4c0-0.5-0.3-0.7-0.9-0.7c-0.5,0-0.8,0.2-0.9,0.5h-0.9
				c0.1-0.8,0.8-1.3,1.8-1.3c1.1,0,1.8,0.6,1.8,1.5v3.1h-0.9v-0.6h-0.1c-0.3,0.5-0.8,0.7-1.4,0.7c-0.7,0.1-1.4-0.5-1.5-1.2
				C76.4,44.5,76.4,44.5,76.4,44.4z M79.3,44v-0.4l-1.1,0.1c-0.6,0-0.9,0.3-0.9,0.6c0,0.4,0.4,0.6,0.8,0.6
				C78.7,45.1,79.2,44.7,79.3,44C79.3,44.1,79.3,44.1,79.3,44z"/>
			<path d="M81.3,43.4c0-1.4,0.7-2.3,1.9-2.3c0.6,0,1.1,0.3,1.4,0.8h0.1v-2.5h0.9v6.3h-0.9V45h-0.1c-0.3,0.5-0.8,0.8-1.4,0.8
				C82.1,45.8,81.3,44.9,81.3,43.4z M82.3,43.4c0,1,0.5,1.5,1.2,1.5c0.7,0,1.2-0.6,1.2-1.5c0-0.9-0.5-1.5-1.2-1.5
				C82.7,41.9,82.3,42.5,82.3,43.4L82.3,43.4z"/>
			<path d="M89.2,43.4c-0.1-1.2,0.7-2.2,1.9-2.3s2.2,0.7,2.3,1.9c0,0.1,0,0.3,0,0.4c0.1,1.2-0.7,2.2-1.9,2.3
				c-1.2,0.1-2.2-0.7-2.3-1.9C89.2,43.7,89.2,43.6,89.2,43.4z M92.6,43.4c0-1-0.4-1.5-1.2-1.5c-0.8,0-1.2,0.6-1.2,1.5
				c0,1,0.4,1.6,1.2,1.6C92.1,45,92.6,44.4,92.6,43.4z"/>
			<path d="M94.7,41.2h0.9v0.7h0.1c0.2-0.5,0.8-0.8,1.3-0.8c0.8-0.1,1.5,0.5,1.6,1.4c0,0.1,0,0.2,0,0.3v2.9h-0.9V43
				c0-0.7-0.3-1.1-1-1.1c-0.6,0-1.1,0.4-1.1,1c0,0.1,0,0.1,0,0.2v2.6h-0.9V41.2z"/>
			<path d="M103.5,40.1v1.1h1V42h-1v2.3c0,0.5,0.2,0.7,0.6,0.7c0.1,0,0.2,0,0.3,0v0.7c-0.2,0-0.3,0-0.5,0c-1,0-1.4-0.3-1.4-1.2V42
				h-0.7v-0.7h0.7v-1.1H103.5z"/>
			<path d="M105.7,39.4h0.9v2.5h0.1c0.2-0.5,0.8-0.9,1.4-0.8c0.8,0,1.5,0.6,1.6,1.4c0,0.1,0,0.2,0,0.3v2.9h-0.9V43
				c0-0.7-0.3-1.1-1-1.1c-0.6,0-1.1,0.4-1.1,1c0,0.1,0,0.1,0,0.2v2.6h-0.9L105.7,39.4z"/>
			<path d="M114.8,44.5c-0.2,0.8-1.1,1.4-2,1.3c-1.1,0-2.1-0.9-2.1-2c0-0.1,0-0.2,0-0.3c-0.2-1.1,0.6-2.2,1.8-2.3c0.1,0,0.2,0,0.3,0
				c1.3,0,2,0.9,2,2.3v0.3h-3.2v0c-0.1,0.7,0.4,1.2,1.1,1.3c0,0,0.1,0,0.1,0c0.4,0.1,0.9-0.2,1.1-0.5L114.8,44.5z M111.6,43h2.3
				c0-0.6-0.4-1.1-1-1.2c0,0-0.1,0-0.1,0C112.2,41.9,111.6,42.4,111.6,43C111.6,43,111.6,43,111.6,43L111.6,43z"/>
		</g>
	</g>
</g>
</svg>
