<svg xmlns="http://www.w3.org/2000/svg" viewBox="0 0 52.4 101.92500000000001" x="0px" y="0px"><title>资源 278x</title><g data-name="图层 2"><g data-name="图层 1"><path d="M52.4,10a10,10,0,0,0-10-10H10A10,10,0,0,0,0,10V71.53a10,10,0,0,0,10,10H42.39a10,10,0,0,0,10-10ZM3.64,15.69H48.76V64H3.64ZM10,3.64H42.38A6.37,6.37,0,0,1,48.76,10v2H3.64V10A6.37,6.37,0,0,1,10,3.64ZM42.38,77.9H10a6.37,6.37,0,0,1-6.37-6.37v-4H48.76v4a6.37,6.37,0,0,1-6.37,6.37Zm0,0"/><path d="M26.33,69.81a2.77,2.77,0,1,0,2.77,2.77,2.77,2.77,0,0,0-2.77-2.77Zm0,0"/></g></g></svg>
