<svg xmlns="http://www.w3.org/2000/svg" xmlns:xlink="http://www.w3.org/1999/xlink" version="1.1" x="0px" y="0px" viewBox="0 0 100 100" enable-background="new 0 0 100 100" xml:space="preserve"><g><path fill="#000000" d="M52.4,54.8H50h-2.4c-0.1,0-0.1,0.2,0,0.2c0,0,0.7,0.5,2.4,0.4c1.7,0.1,2.4-0.4,2.4-0.4   C52.5,55,52.5,54.8,52.4,54.8z"></path><path fill="#000000" d="M65.5,7.1C61.3,4.8,50,5,50,5S38.7,4.8,34.5,7.1c-4.2,2.3-3.3,45.2-3.3,45.2s1.1,36.6,4.3,39.7   C38.6,95.2,50,95,50,95s11.4,0.2,14.6-2.9c3.2-3.2,4.3-39.7,4.3-39.7S69.8,9.5,65.5,7.1z M35.3,71.4c0.1-0.4,0.1-1.1,2.4-1.1   c3,0,4.8,2.4,4.8,3.4c-0.4,1.4-3.7,0.9-4.4,0.7C35.1,73.6,35.2,71.9,35.3,71.4z M34.9,65.2c0.1-0.4,0.1-1.1,2.4-1.1   c3,0,4.8,2.4,4.8,3.4c-0.4,1.4-3.7,0.9-4.4,0.7C34.7,67.3,34.8,65.6,34.9,65.2z M35.7,77.8c0.1-0.4,0.1-1.1,2.4-1.1   c3,0,4.8,2.4,4.8,3.4c-0.4,1.4-3.7,0.9-4.4,0.7C35.5,80,35.6,78.2,35.7,77.8z M39,86.9c-3-0.9-2.9-2.6-2.8-3.1   c0.1-0.4,0.1-1.1,2.4-1.1c3,0,4.8,2.4,4.8,3.4C43,87.6,39.7,87.1,39,86.9z M49.8,88.8c-1.1,0-3.8-0.8-3.8-2.3   c0-1.5,2.7-1.8,3.8-1.8c1.1,0,3.8,0.3,3.8,1.8C53.6,87.9,50.9,88.8,49.8,88.8z M49.8,82.4c-1.1,0-3.8-0.8-3.8-2.3   c0-1.5,2.7-1.8,3.8-1.8c1.1,0,3.8,0.3,3.8,1.8C53.6,81.5,50.9,82.4,49.8,82.4z M49.8,76.1c-1.1,0-3.8-0.8-3.8-2.3   c0-1.5,2.7-1.8,3.8-1.8c1.1,0,3.8,0.3,3.8,1.8C53.6,75.3,50.9,76.1,49.8,76.1z M49.8,69.8c-1.1,0-3.8-0.8-3.8-2.3   c0-1.5,2.7-1.8,3.8-1.8c1.1,0,3.8,0.3,3.8,1.8C53.6,68.9,50.9,69.8,49.8,69.8z M60.1,86.9c-0.7,0.2-4,0.7-4.4-0.7   c0-1,1.8-3.4,4.8-3.4c2.3,0,2.3,0.6,2.4,1.1C63,84.3,63.1,86,60.1,86.9z M60.6,80.9c-0.7,0.2-4,0.7-4.4-0.7c0-1,1.8-3.4,4.8-3.4   c2.3,0,2.3,0.6,2.4,1.1C63.5,78.2,63.6,80,60.6,80.9z M61,74.5c-0.7,0.2-4,0.7-4.4-0.7c0-1,1.8-3.4,4.8-3.4c2.3,0,2.3,0.6,2.4,1.1   C63.9,71.9,64,73.6,61,74.5z M61.4,68.2c-0.7,0.2-4,0.7-4.4-0.7c0-1,1.8-3.4,4.8-3.4c2.3,0,2.3,0.6,2.4,1.1   C64.3,65.6,64.4,67.3,61.4,68.2z M66.8,47C64.1,61.1,55,64.5,50,64.5S35.9,61.1,33.2,47c-1.2-9-0.7-14.7-0.7-14.7   s1.4-21.4,3.6-23.8C38.3,6.2,50,6.4,50,6.4s11.7-0.3,13.9,2.1c2.2,2.4,3.6,23.8,3.6,23.8S68,38,66.8,47z"></path><path fill="#000000" d="M50,7.4c0,0-9.9-0.2-12.5,1.9c-2.6,2.1-2.6,25.1-2.6,25.1s0.2,10.8,1.8,14.3c1.6,3.6,4,4.9,4,4.9   s5.1-1.1,9.3-1.1c4.2,0,9.3,1.1,9.3,1.1s2.3-1.3,4-4.9c1.6-3.6,1.8-14.3,1.8-14.3s0-23-2.6-25.1C59.9,7.3,50,7.4,50,7.4z M50,8   c0.6,0,1.1,3,1.1,6.7c0,3.7-0.5,6.7-1.1,6.7s-1.1-3-1.1-6.7C49,11,49.4,8,50,8z M63.7,31.2c0,0,0.2,2.8,0,7.8   c-0.2,5-0.8,7.8-0.8,7.8c0,0.9-0.7,1.5-1.5,1.5c0,0-6.1,0.4-11.4,0.4s-11.4-0.4-11.4-0.4c-0.9,0-1.5-0.7-1.5-1.5   c0,0-0.5-2.8-0.8-7.8s0-7.8,0-7.8c0-0.9,0.7-1.5,1.5-1.5c0,0,0.7-0.3,12.2-0.3s12.2,0.3,12.2,0.3C63,29.7,63.7,30.3,63.7,31.2z"></path></g></svg>